<?xml version="1.0" encoding="utf-8"?>
<!-- Generator: Adobe Illustrator 22.0.1, SVG Export Plug-In . SVG Version: 6.00 Build 0)  -->
<svg version="1.1" id="Layer_1" xmlns="http://www.w3.org/2000/svg" xmlns:xlink="http://www.w3.org/1999/xlink" x="0px" y="0px"
	 viewBox="0 0 820 212" style="enable-background:new 0 0 820 212;" xml:space="preserve">
<style type="text/css">
	.st0{fill:#FFEEF8;stroke:#B1C7E0;stroke-miterlimit:10;}
	.st1{fill:none;stroke:#EAD3DF;stroke-width:4;stroke-miterlimit:10;}
	.st2{fill:none;stroke:#EAD3DF;stroke-width:2;stroke-miterlimit:10;}
</style>
<rect x="-94" y="-49" class="st0" width="971" height="382"/>
<g>
	<line class="st1" x1="97.5" y1="-37" x2="-162" y2="222.5"/>
	<line class="st2" x1="-261" y1="32.5" x2="28" y2="321.5"/>
	<line class="st1" x1="15.5" y1="365" x2="382.5" y2="-2"/>
	<line class="st2" x1="495" y1="292.8" x2="317" y2="-14.5"/>
	<line class="st2" x1="183.5" y1="-51" x2="183.5" y2="341"/>
	<line class="st2" x1="388.5" y1="-73" x2="388.5" y2="293"/>
	<circle class="st2" cx="273" cy="87.5" r="116"/>
	<circle class="st2" cx="201.5" cy="135" r="31.5"/>
	<line class="st2" x1="223" y1="157.5" x2="201" y2="135.5"/>
	<polygon class="st1" points="389,184.4 411,222.6 410.5,223 366.5,223 366,222.6 388,184.4 	"/>
	<line class="st2" x1="233" y1="216.5" x2="233" y2="135.5"/>
	<polygon class="st1" points="455,223 432.7,184.5 388.3,184.5 366,223 388.3,261.5 432.7,261.5 	"/>
	<circle class="st2" cx="273.5" cy="180" r="116"/>
	<line class="st2" x1="396.5" y1="101" x2="381" y2="116.5"/>
	<line class="st2" x1="381" y1="101" x2="396.5" y2="116.5"/>
	<circle class="st2" cx="594" cy="39.5" r="53"/>
	<circle class="st2" cx="594" cy="39.5" r="79.5"/>
	<circle class="st2" cx="594" cy="39.5" r="106"/>
	<circle class="st2" cx="594" cy="39.5" r="156"/>
	<circle class="st1" cx="594" cy="39.5" r="159"/>
</g>
</svg>
