<?xml version="1.0" encoding="utf-8"?>
<!-- Generator: Adobe Illustrator 22.0.1, SVG Export Plug-In . SVG Version: 6.00 Build 0)  -->
<svg version="1.1" id="Layer_1" xmlns="http://www.w3.org/2000/svg" xmlns:xlink="http://www.w3.org/1999/xlink" x="0px" y="0px"
	 viewBox="0 0 820 212" style="enable-background:new 0 0 820 212;" xml:space="preserve">
<style type="text/css">
	.st0{fill:#FFF9E5;stroke:#B1C7E0;stroke-miterlimit:10;}
	.st1{fill:none;stroke:#F2ECCD;stroke-miterlimit:10;}
	.st2{fill:none;stroke:#F2ECCD;stroke-width:2;stroke-miterlimit:10;}
	.st3{fill:none;stroke:#F2ECCD;stroke-width:4;stroke-miterlimit:10;}
	.st4{fill:none;stroke:#F2ECCD;stroke-width:0.5;stroke-miterlimit:10;}
</style>
<rect x="-94" y="-49" class="st0" width="971" height="382"/>
<g>
	<line class="st1" x1="64" y1="29" x2="275.5" y2="240.5"/>
	<line class="st1" x1="254" y1="-70" x2="-35" y2="219"/>
	<line class="st1" x1="608.5" y1="253.5" x2="241.5" y2="-113.5"/>
	<line class="st1" x1="543" y1="266" x2="721" y2="-41.3"/>
	<line class="st2" x1="409.5" y1="-89.5" x2="409.5" y2="302.5"/>
	<line class="st2" x1="203.5" y1="-70.5" x2="203.5" y2="366.5"/>
	<path class="st1" d="M819.5,211.5"/>
	<path class="st1" d="M409.5-0.5"/>
	<rect x="-15.5" y="-49.5" class="st2" width="79" height="79"/>
	<path class="st1" d="M819.5-0.5"/>
	<path class="st1" d="M409.5,211.5"/>
	<rect x="-15" y="75" class="st2" width="79" height="155"/>
	<line class="st2" x1="614.5" y1="-41.5" x2="614.5" y2="324.5"/>
	<line class="st3" x1="140" y1="28" x2="155.5" y2="43.5"/>
	<line class="st3" x1="155.5" y1="28" x2="140" y2="43.5"/>
	<circle class="st4" cx="499" cy="164" r="116"/>
	<rect x="197" y="29" class="st3" width="13" height="13"/>
	<circle class="st3" cx="427.5" cy="116.5" r="31.5"/>
	<line class="st2" x1="203" y1="35" x2="459" y2="35"/>
	<line class="st2" x1="427" y1="116" x2="449" y2="94"/>
	<rect x="64" y="29" class="st3" width="46" height="46"/>
	<polygon class="st2" points="614,67.1 592,28.9 592.5,28.5 636.5,28.5 637,28.9 615,67.1 	"/>
	<line class="st2" x1="459" y1="116" x2="459" y2="35"/>
	<polygon class="st3" points="658.7,-10 614.3,-10 592,28.5 614.3,67 658.7,67 681,28.5 	"/>
	<circle class="st4" cx="499.5" cy="71.5" r="116"/>
	<line class="st3" x1="196" y1="161" x2="211.5" y2="176.5"/>
	<line class="st3" x1="211.5" y1="161" x2="196" y2="176.5"/>
	<line class="st3" x1="607" y1="135" x2="622.5" y2="150.5"/>
	<line class="st3" x1="622.5" y1="135" x2="607" y2="150.5"/>
	<circle class="st3" cx="820" cy="212" r="53"/>
	<circle class="st2" cx="820" cy="212" r="79.5"/>
	<circle class="st1" cx="820" cy="212" r="106"/>
	<circle class="st4" cx="820" cy="212" r="156"/>
	<circle class="st4" cx="820" cy="212" r="159"/>
</g>
</svg>
