<?xml version="1.0" encoding="UTF-8"?>
<svg width="1108px" height="1108px" viewBox="0 0 1108 1108" version="1.1" xmlns="http://www.w3.org/2000/svg" xmlns:xlink="http://www.w3.org/1999/xlink">
    <!-- Generator: Sketch 61.2 (89653) - https://sketch.com -->
    <title>Logo</title>
    <desc>Created with Sketch.</desc>
    <defs>
        <path d="M561.959961,762.703125 C660.831055,762.703125 729.817383,706.005859 739.313477,616.072266 L657.200195,616.072266 C648.262695,663.832031 612.233398,693.158203 562.239258,693.158203 C497.72168,693.158203 457.223633,640.091797 457.223633,554.068359 C457.223633,469.162109 498.280273,415.816406 561.959961,415.816406 C611.116211,415.816406 649.100586,448.214844 656.920898,497.650391 L739.03418,497.650391 C732.610352,407.4375 658.875977,345.992188 561.959961,345.992188 C445.213867,345.992188 371.200195,424.474609 371.200195,554.347656 C371.200195,684.5 444.655273,762.703125 561.959961,762.703125 Z" id="path-1"></path>
    </defs>
    <g id="Page-1" stroke="none" stroke-width="1" fill="none" fill-rule="evenodd">
        <g id="Group">
            <g id="C" fill-rule="nonzero">
                <use fill-opacity="0.3" fill="#FFFFFF" xlink:href="#path-1"></use>
                <use fill="#000000" xlink:href="#path-1"></use>
            </g>
            <path d="M554,0 C859.965751,0 1108,248.034249 1108,554 C1108,859.965751 859.965751,1108 554,1108 C248.034249,1108 0,859.965751 0,554 C0,248.034249 248.034249,0 554,0 Z M554,72 C287.798751,72 72,287.798751 72,554 C72,820.201249 287.798751,1036 554,1036 C820.201249,1036 1036,820.201249 1036,554 C1036,287.798751 820.201249,72 554,72 Z" id="Combined-Shape" fill="#000000"></path>
        </g>
    </g>
</svg>