<?xml version="1.0" encoding="utf-8"?>
<!-- Generator: Adobe Illustrator 22.0.1, SVG Export Plug-In . SVG Version: 6.00 Build 0)  -->
<svg version="1.1" id="Layer_1" xmlns="http://www.w3.org/2000/svg" xmlns:xlink="http://www.w3.org/1999/xlink" x="0px" y="0px"
	 viewBox="0 0 157.7 157.5" style="enable-background:new 0 0 157.7 157.5;" xml:space="preserve">
<style type="text/css">
	.st0{fill:#21CE3E;}
</style>
<g transform="scale(0.18) translate(50,65)">
	<path id="path10" class="st0" d="M348-63.9c-47.4,4.9-97.4,17.5-131.8,33.3c-3.2,1.5-6,2.6-6.2,2.6c-1.1,0-23,11-31.4,15.7
		c-5.2,2.9-9.5,5.3-9.6,5.3c-2,0-47.9,30.9-50.5,34c-0.3,0.3-2.5,2.1-5,4c-2.5,1.9-4.7,3.7-5,4c-0.3,0.3-3.6,3.2-7.5,6.4
		c-3.8,3.3-14.7,13.6-24,23L60,81.5l202.3,0.3c111.2,0.1,202.2,0.4,202.2,0.6s-26.9,45.3-59.8,100.2
		c-32.9,54.9-114.4,191-181.1,302.4S100.7,690,98.8,693l-3.4,5.5l4.3,3.9c39,35.1,95.5,67.6,148.3,85.1
		c124,41.2,263,25.6,369.5-41.3c31.8-20,57.8-40.8,84.3-67.7l14.8-15l-203-0.5l-203-0.5l28.8-47.5c15.8-26.1,38.6-63.7,50.6-83.5
		c12-19.8,26.2-43.2,31.5-52c5.3-8.8,18.7-30.9,29.7-49c41.3-68.2,110.2-182,126.6-209c9.3-15.4,18.2-30,19.7-32.5
		c1.5-2.5,11.8-19.6,23-38c11.2-18.4,29.8-49.2,41.4-68.4L683,47.8l-4.5-3.9c-64.9-57-140.8-91.9-229-105.2
		C427.1-64.8,370.1-66.2,348-63.9 M730.3,102.2c-0.8,1.3-11.3,18.5-23.3,38.3c-12,19.8-26.2,43.2-31.5,52
		c-5.3,8.8-18.9,31.1-30,49.5c-11.2,18.4-25.3,41.8-31.5,52c-6.2,10.2-21,34.7-33,54.5c-12,19.8-30.1,49.7-40.3,66.5
		c-10.2,16.8-19.7,32.5-21.2,35c-1.5,2.5-10.5,17.3-20,33s-23.3,38.4-30.6,50.5c-7.3,12.1-18.5,30.5-24.8,41l-11.5,19l166.2,0.3
		c91.4,0.1,166.7,0.1,167.3-0.2c3.2-1.2,23.9-43.1,31.6-64.1c7-19,8.9-24.8,12.7-38.2c27-96,19.4-207.2-19.9-293.8
		c-10.3-22.6-13.4-28.6-26.9-51.5c-7.4-12.7-25.2-38.4-31.2-45.3C732.1,100.3,731.1,101,730.3,102.2 M8.8,152.8
		c-0.3,1-1.4,2.9-2.4,4.3c-15,21.8-36.4,77.7-46.7,122.4c-10.2,44.1-12.5,100.5-6.1,150.5c6.8,52.9,25,108.5,50.4,153.5
		c14.8,26.2,40.1,63.2,42.7,62.3C47,645.7,64.8,616.5,86,581c38.8-64.8,89.6-149.5,196.2-327.5c31.6-52.8,58.4-97.5,59.5-99.2
		l1.9-3.2H176.5C18.3,151,9.4,151.1,8.8,152.8"/>
</g>
</svg>
